<?xml version="1.0" standalone="no"?>
<!DOCTYPE svg PUBLIC "-//W3C//DTD SVG 20010904//EN"
 "http://www.w3.org/TR/2001/REC-SVG-20010904/DTD/svg10.dtd">
<svg version="1.0" xmlns="http://www.w3.org/2000/svg"
 width="256.000000pt" height="256.000000pt" viewBox="0 0 256.000000 256.000000"
 preserveAspectRatio="xMidYMid meet">
<metadata>
Created by potrace 1.14, written by Peter Selinger 2001-2017
</metadata>
<g transform="translate(0.000000,256.000000) scale(0.100000,-0.100000)"
fill="#000000" stroke="none">
<path d="M0 1280 l0 -1280 1280 0 1280 0 0 1280 0 1280 -1280 0 -1280 0 0
-1280z m1015 590 c778 0 970 -8 888 -34 -10 -3 -30 -16 -45 -29 -23 -20 -25
-27 -18 -62 9 -48 78 -273 90 -296 4 -9 4 -22 -1 -30 -5 -8 -9 -31 -9 -51 0
-21 -6 -55 -14 -75 -7 -21 -21 -74 -31 -118 -11 -50 -33 -110 -60 -160 -46
-85 -109 -166 -128 -164 -8 0 -8 2 1 6 6 2 12 11 12 19 0 8 5 14 10 14 6 0 10
5 10 11 0 6 14 30 30 55 30 42 27 60 -4 29 -8 -8 -23 -15 -33 -15 -10 0 -27
-7 -37 -15 -16 -12 -17 -18 -8 -27 20 -20 13 -32 -7 -14 -25 22 -28 21 -85
-32 -50 -47 -57 -62 -25 -62 16 0 19 -4 14 -20 -10 -32 30 -21 83 24 12 11 22
15 22 10 0 -31 -137 -113 -262 -155 -60 -20 -147 -24 -103 -4 24 11 49 34 43
40 -2 3 -29 -5 -59 -16 -67 -26 -148 -49 -171 -49 -13 0 -18 8 -18 25 0 28 3
29 32 14 24 -13 108 8 108 28 0 18 -35 16 -54 -2 -21 -21 -39 -19 -66 10 -26
28 -71 33 -89 11 -9 -11 -7 -15 9 -19 14 -4 18 -10 13 -22 -4 -11 0 -21 10
-27 31 -17 17 -28 -35 -28 -46 0 -50 2 -34 13 18 13 17 16 -8 61 -15 27 -26
50 -24 51 2 2 82 7 178 13 167 9 178 10 240 41 123 60 168 131 195 307 9 60
21 119 26 132 27 67 0 285 -43 345 l-20 27 31 29 c17 16 31 35 31 42 0 10 3
10 12 1 16 -16 31 -15 21 1 -4 6 -8 17 -8 22 0 6 -11 12 -24 13 -18 3 -22 0
-18 -12 7 -19 3 -20 -21 -6 -47 26 -662 65 -676 42 -3 -6 33 -45 81 -88 49
-43 89 -84 91 -91 3 -10 -10 -11 -58 -6 l-61 6 6 -64 c3 -35 11 -101 17 -145
6 -45 8 -94 5 -110 -4 -23 2 -36 29 -67 l35 -38 -46 -51 c-43 -48 -62 -85 -30
-58 9 7 17 11 19 9 2 -2 7 -40 10 -85 6 -67 4 -83 -8 -94 -10 -7 -16 -28 -16
-51 0 -42 -14 -58 -28 -33 -5 9 -15 15 -23 12 -10 -3 -14 -24 -14 -76 0 -65 2
-72 23 -77 35 -9 26 -25 -15 -26 -21 -1 -49 -2 -63 -3 -14 -1 -37 4 -51 11
-19 9 -29 9 -37 1 -7 -7 -14 -9 -17 -6 -3 3 1 13 10 21 19 20 19 37 0 37 -21
0 -19 6 11 46 29 37 26 58 -3 28 -17 -17 -18 -16 -26 37 -4 30 -10 113 -13
184 -6 129 -6 130 20 160 26 30 26 30 5 35 -20 5 -21 10 -20 145 2 153 3 155
83 237 16 17 26 34 21 39 -4 4 -33 9 -63 12 -62 4 -78 11 -174 79 -50 34 -63
48 -48 48 12 0 22 -4 22 -10 0 -5 8 -10 18 -10 10 0 26 -6 37 -14 32 -21 157
-86 168 -86 16 0 -9 24 -45 42 -137 70 -202 97 -224 92 -15 -4 -24 -2 -24 5 0
6 -7 11 -15 11 -8 0 -15 5 -15 10 0 6 -4 10 -9 10 -18 0 -131 71 -131 82 0 6
12 8 33 4 18 -3 316 -6 662 -6z m-315 -1176 c-7 -8 -23 -14 -34 -13 -12 1 -28
-1 -36 -4 -8 -3 -26 -7 -39 -9 -34 -4 -37 -24 -5 -32 14 -4 24 -10 20 -13 -7
-8 -206 -10 -206 -3 0 8 89 49 155 71 28 10 74 18 104 18 47 1 52 -1 41 -15z
m-40 -64 c0 -5 -6 -10 -14 -10 -8 0 -18 5 -21 10 -3 6 3 10 14 10 12 0 21 -4
21 -10z m37 4 c-3 -3 -12 -4 -19 -1 -8 3 -5 6 6 6 11 1 17 -2 13 -5z"/>
<path d="M1850 1290 c0 -5 4 -10 9 -10 6 0 13 5 16 10 3 6 -1 10 -9 10 -9 0
-16 -4 -16 -10z"/>
<path d="M1493 765 c-3 -9 -3 -18 0 -22 10 -10 37 6 37 22 0 20 -29 20 -37 0z"/>
<path d="M1260 729 c0 -5 5 -7 10 -4 6 3 10 8 10 11 0 2 -4 4 -10 4 -5 0 -10
-5 -10 -11z"/>
<path d="M1460 730 c0 -5 5 -10 10 -10 6 0 10 5 10 10 0 6 -4 10 -10 10 -5 0
-10 -4 -10 -10z"/>
</g>
</svg>
